<svg xmlns="http://www.w3.org/2000/svg" viewBox="0 0 512 512">
  <defs>
    <linearGradient id="bg" x1="0%" y1="0%" x2="100%" y2="100%">
      <stop offset="0%" style="stop-color:#06b6d4;stop-opacity:1" />
      <stop offset="100%" style="stop-color:#3b82f6;stop-opacity:1" />
    </linearGradient>
    <linearGradient id="arrow" x1="0%" y1="0%" x2="0%" y2="100%">
      <stop offset="0%" style="stop-color:#22c55e;stop-opacity:1" />
      <stop offset="100%" style="stop-color:#10b981;stop-opacity:1" />
    </linearGradient>
  </defs>
  
  <!-- Background rounded square -->
  <rect x="32" y="32" width="448" height="448" rx="96" fill="url(#bg)"/>
  
  <!-- Bill/Receipt icon (white) -->
  <path d="M160 96h192c17.7 0 32 14.3 32 32v320l-48-32-48 32-48-32-48 32-48-32-48 32V128c0-17.7 14.3-32 32-32z" 
        fill="white" 
        fill-opacity="0.95"/>
  
  <!-- Bill lines -->
  <rect x="192" y="160" width="128" height="16" rx="8" fill="#0f172a" fill-opacity="0.3"/>
  <rect x="192" y="200" width="96" height="16" rx="8" fill="#0f172a" fill-opacity="0.3"/>
  <rect x="192" y="240" width="112" height="16" rx="8" fill="#0f172a" fill-opacity="0.3"/>
  
  <!-- Downward arrow (savings indicator) -->
  <circle cx="360" cy="340" r="72" fill="url(#arrow)"/>
  <path d="M360 300l-32 40h20v40h24v-40h20l-32-40z" fill="white"/>
</svg>
